<?xml version="1.0" encoding="UTF-8" standalone="no"?>
<!DOCTYPE svg PUBLIC "-//W3C//DTD SVG 1.1//EN" "http://www.w3.org/Graphics/SVG/1.1/DTD/svg11.dtd">
<svg width="100%" height="100%" viewBox="0 0 668 235" version="1.1" xmlns="http://www.w3.org/2000/svg" xmlns:xlink="http://www.w3.org/1999/xlink" xml:space="preserve" xmlns:serif="http://www.serif.com/" style="fill-rule:evenodd;clip-rule:evenodd;stroke-linejoin:round;stroke-miterlimit:2;">
    <g id="g495" transform="matrix(0.104121,0,0,0.104121,-179.491,48.2681)">
        <g id="rect6" transform="matrix(1.41888,0,0,1.41888,-618.368,-1491.42)">
            <rect x="3288.76" y="1543.26" width="458.856" height="100.338" style="fill:white;"/>
        </g>
        <g id="path10" transform="matrix(1.41888,0,0,1.41888,-618.368,-1491.42)">
            <path d="M4120.78,1920.95C4065.91,1920.95 4022.31,1907.62 3990,1880.93C3957.68,1854.25 3941.52,1806.71 3941.52,1738.31L3941.52,1462.09L3845.7,1462.09L3845.7,1361.75L3941.52,1361.75L3956.18,1219.69L4061.03,1219.69L4061.03,1361.75L4218.87,1361.75L4218.87,1462.09L4061.03,1462.09L4061.03,1738.31C4061.03,1769.13 4067.6,1790.36 4080.76,1802.01C4093.9,1813.67 4116.64,1819.48 4148.97,1819.48L4213.23,1819.48L4213.23,1920.95L4120.78,1920.95Z" style="fill:white;fill-rule:nonzero;"/>
        </g>
        <g id="path14" transform="matrix(1.41888,0,0,1.41888,-618.368,-1491.42)">
            <path d="M4588.68,1446.31C4548.83,1446.31 4513.5,1458.14 4482.69,1481.82C4451.87,1505.49 4433.09,1541.01 4426.32,1588.36L4742,1588.36C4739.74,1544.78 4724.33,1510.19 4695.77,1484.64C4667.2,1459.1 4631.52,1446.31 4588.68,1446.31M4588.68,1934.48C4533.8,1934.48 4485.12,1922.25 4442.67,1897.83C4400.2,1873.42 4366.94,1839.4 4342.9,1795.81C4318.83,1752.22 4306.82,1701.49 4306.82,1643.6C4306.82,1584.98 4318.66,1533.5 4342.33,1489.15C4366.01,1444.8 4399.07,1410.22 4441.54,1385.42C4484,1360.62 4533.43,1348.22 4589.8,1348.22C4644.65,1348.22 4692.39,1360.44 4732.98,1384.86C4773.57,1409.29 4805.14,1441.79 4827.68,1482.38C4850.24,1522.97 4861.51,1567.69 4861.51,1616.55C4861.51,1624.07 4861.31,1632.15 4860.94,1640.78C4860.56,1649.43 4859.99,1659.02 4859.26,1669.53L4424.07,1669.53C4427.82,1723.65 4445.66,1764.8 4477.62,1792.99C4509.56,1821.17 4546.57,1835.27 4588.68,1835.27C4622.5,1835.27 4650.86,1827.56 4673.8,1812.15C4696.71,1796.75 4713.82,1775.9 4725.09,1749.58L4844.6,1749.58C4829.56,1802.2 4799.67,1846.17 4754.97,1881.49C4710.24,1916.83 4654.8,1934.48 4588.68,1934.48" style="fill:white;fill-rule:nonzero;"/>
        </g>
        <g id="path18" transform="matrix(1.41888,0,0,1.41888,-618.368,-1491.42)">
            <path d="M5250.47,1934.47C5195.6,1934.47 5146.56,1922.07 5103.35,1897.27C5060.11,1872.47 5026.29,1838.08 5001.88,1794.12C4977.44,1750.14 4965.24,1699.23 4965.24,1641.35C4965.24,1583.48 4977.44,1532.55 5001.88,1488.58C5026.29,1444.61 5060.11,1410.22 5103.35,1385.42C5146.56,1360.62 5195.6,1348.22 5250.47,1348.22C5319.61,1348.22 5377.68,1366.26 5424.65,1402.33C5471.63,1438.41 5501.89,1487.28 5515.41,1548.9L5390.27,1548.9C5382.75,1518.08 5366.21,1494.04 5340.66,1476.74C5315.11,1459.46 5285.04,1450.81 5250.47,1450.81C5221.16,1450.81 5194.1,1458.14 5169.3,1472.8C5144.5,1487.45 5124.57,1508.87 5109.55,1537.06C5094.5,1565.24 5087,1600.02 5087,1641.35C5087,1682.69 5094.5,1717.44 5109.55,1745.63C5124.57,1773.82 5144.5,1795.43 5169.3,1810.46C5194.1,1825.5 5221.16,1833.01 5250.47,1833.01C5285.04,1833.01 5315.11,1824.37 5340.66,1807.07C5366.21,1789.8 5382.75,1765.36 5390.27,1733.8L5515.41,1733.8C5502.63,1793.93 5472.57,1842.41 5425.23,1879.23C5377.87,1916.07 5319.61,1934.47 5250.47,1934.47" style="fill:white;fill-rule:nonzero;"/>
        </g>
        <g id="path22" transform="matrix(1.41888,0,0,1.41888,-618.368,-1491.42)">
            <path d="M5645.04,1920.95L5645.04,1109.2L5764.55,1109.2L5764.55,1451.94C5783.33,1419.63 5809.45,1394.26 5842.9,1375.84C5876.34,1357.43 5913.37,1348.22 5953.96,1348.22C6020.84,1348.22 6073.46,1369.27 6111.79,1411.35C6150.12,1453.46 6169.29,1516.2 6169.29,1599.63L6169.29,1920.95L6050.91,1920.95L6050.91,1612.04C6050.91,1503.81 6007.69,1449.68 5921.26,1449.68C5876.16,1449.68 5838.76,1465.47 5809.08,1497.04C5779.38,1528.61 5764.55,1573.7 5764.55,1632.33L5764.55,1920.95L5645.04,1920.95Z" style="fill:white;fill-rule:nonzero;"/>
        </g>
        <g id="path26" transform="matrix(1.41888,0,0,1.41888,-618.368,-1491.42)">
            <path d="M2897.27,1626.76L3296.02,2237.49L2725.55,2237.49L2540.59,1954.2L2355.63,2237.49L2030.52,2237.49L2274.7,1863.5L2732.28,1863.5C2744.85,1884.35 2767.64,1898.33 2793.75,1898.33C2833.41,1898.33 2865.55,1866.19 2865.55,1826.53C2865.55,1786.87 2833.41,1754.73 2793.75,1754.73C2767.14,1754.73 2743.97,1769.24 2731.56,1790.75L2235.31,1790.75L1943.63,2237.49L1785.16,2237.49L2107.68,1743.51L2388.6,1313.25L2556.13,1313.25C2568.62,1334.42 2591.6,1348.67 2617.96,1348.67C2657.62,1348.67 2689.76,1316.53 2689.76,1276.87C2689.76,1237.21 2657.62,1205.07 2617.96,1205.07C2591.6,1205.07 2568.62,1219.32 2556.13,1240.49L2349.21,1240.49L2211.91,1450.78L2168.47,1517.33L1650.77,2310.24L2395.01,2310.24L2540.6,2087.28L2686.17,2310.24L3430.41,2310.24L2940.72,1560.22L2897.27,1626.76ZM2183.9,1407.89L1785.16,797.164L2355.63,797.164L2540.59,1080.46L2725.55,797.164L3296.02,797.164L2825.82,1517.33L2778.63,1589.61L2491.61,1589.61C2479.13,1568.43 2456.15,1554.18 2429.79,1554.18C2390.13,1554.18 2357.99,1586.33 2357.99,1625.98C2357.99,1665.64 2390.13,1697.78 2429.79,1697.78C2456.15,1697.78 2479.12,1683.54 2491.61,1662.36L2818.01,1662.36L2869.26,1583.87L2963.82,1439.05L2983.62,1408.7L3430.4,724.408L2686.16,724.408L2540.59,947.374L2395.01,724.408L1650.76,724.408L2140.45,1474.43L2183.9,1407.89Z" style="fill:white;fill-rule:nonzero;"/>
        </g>
    </g>
</svg>
